<svg xmlns="http://www.w3.org/2000/svg" xmlns:xlink="http://www.w3.org/1999/xlink" width="800" height="521.04"><rect width="800" height="521.04" rx="0" ry="0" class="a"></rect><svg height="521.04" viewBox="0 0 80 52.104" width="800" xmlns="http://www.w3.org/2000/svg" xmlns:xlink="http://www.w3.org/1999/xlink"><style>.a{fill:rgb(40,45,53)}.b{font-family:'Fira Code',Monaco,Consolas,Menlo,'Bitstream Vera Sans Mono','Powerline Symbols',monospace}.c{fill:rgb(185,192,203);white-space:pre}.d{fill:transparent}.f{animation-duration:14.6893389225006s;animation-iteration-count:infinite;animation-name:e;animation-timing-function:steps(1,end)}@keyframes e{0%{transform:translateX(-0px)}0.1%{transform:translateX(-80px)}0.6%{transform:translateX(-160px)}1.4%{transform:translateX(-240px)}1.7%{transform:translateX(-320px)}2.2%{transform:translateX(-400px)}2.8%{transform:translateX(-480px)}3.2%{transform:translateX(-560px)}4.1%{transform:translateX(-640px)}4.9%{transform:translateX(-720px)}5.5%{transform:translateX(-800px)}6.5%{transform:translateX(-880px)}7.4%{transform:translateX(-960px)}8.4%{transform:translateX(-1040px)}8.8%{transform:translateX(-1120px)}9.7%{transform:translateX(-1200px)}10.3%{transform:translateX(-1280px)}10.7%{transform:translateX(-1360px)}11.5%{transform:translateX(-1440px)}11.9%{transform:translateX(-1520px)}12.6%{transform:translateX(-1600px)}13.5%{transform:translateX(-1680px)}14.1%{transform:translateX(-1760px)}14.6%{transform:translateX(-1840px)}15.6%{transform:translateX(-1920px)}16.4%{transform:translateX(-2000px)}17.2%{transform:translateX(-2080px)}17.5%{transform:translateX(-2160px)}18.2%{transform:translateX(-2240px)}18.9%{transform:translateX(-2320px)}19.4%{transform:translateX(-2400px)}20.4%{transform:translateX(-2480px)}21.1%{transform:translateX(-2560px)}21.5%{transform:translateX(-2640px)}22.1%{transform:translateX(-2720px)}22.8%{transform:translateX(-2800px)}23.2%{transform:translateX(-2880px)}23.6%{transform:translateX(-2960px)}24.4%{transform:translateX(-3040px)}25%{transform:translateX(-3120px)}25.5%{transform:translateX(-3200px)}26%{transform:translateX(-3280px)}26.4%{transform:translateX(-3360px)}27.3%{transform:translateX(-3440px)}27.9%{transform:translateX(-3520px)}28.4%{transform:translateX(-3600px)}28.9%{transform:translateX(-3680px)}29.3%{transform:translateX(-3760px)}30.2%{transform:translateX(-3840px)}30.8%{transform:translateX(-3920px)}31.3%{transform:translateX(-4000px)}32%{transform:translateX(-4080px)}32.8%{transform:translateX(-4160px)}33.7%{transform:translateX(-4240px)}34.2%{transform:translateX(-4320px)}35%{transform:translateX(-4400px)}35.5%{transform:translateX(-4480px)}36.2%{transform:translateX(-4560px)}57.5%{transform:translateX(-4640px)}57.9%{transform:translateX(-4720px)}58.4%{transform:translateX(-4800px)}58.9%{transform:translateX(-4880px)}59.3%{transform:translateX(-4960px)}60.2%{transform:translateX(-5040px)}61.1%{transform:translateX(-5120px)}61.5%{transform:translateX(-5200px)}62.3%{transform:translateX(-5280px)}62.8%{transform:translateX(-5360px)}63.6%{transform:translateX(-5440px)}64.6%{transform:translateX(-5520px)}65%{transform:translateX(-5600px)}65.1%{transform:translateX(-5680px)}65.1%{transform:translateX(-5760px)}65.1%{transform:translateX(-5840px)}65.1%{transform:translateX(-5920px)}100%{transform:translateX(-6000px)}}</style><g font-family="&#x27;Fira Code&#x27;,Monaco,Consolas,Menlo,&#x27;Bitstream Vera Sans Mono&#x27;,&#x27;Powerline Symbols&#x27;,monospace" font-size="1.67" class="b"><defs><symbol id="1"><text x="0" y="1.67" class="c">paris_corpus</text></symbol><symbol id="2"><text x="0" y="1.67" class="c">paris_corpus</text><text x="13.026" y="1.67" class="c">&lt;-</text></symbol><symbol id="3"><text x="0" y="1.67" class="c">paris_corpus</text><text x="13.026" y="1.67" class="c">&lt;-</text><text x="16.032" y="1.67" class="c">create_corpus(paris$content,</text></symbol><symbol id="4"><text x="0" y="1.67" class="c">paris_corpus</text><text x="13.026" y="1.67" class="c">&lt;-</text><text x="16.032" y="1.67" class="c">create_corpus(paris$content,</text><text x="45.089999999999996" y="1.67" class="c">paris$lang)</text></symbol><symbol id="5"><text x="0" y="1.67" class="c">&gt;</text><text x="2.004" y="1.67" class="c">paris_corpus</text></symbol><symbol id="6"><text x="0" y="1.67" class="c">Corpus</text><text x="7.013999999999999" y="1.67" class="c">consisting</text><text x="18.035999999999998" y="1.67" class="c">of</text><text x="21.041999999999998" y="1.67" class="c">3,391</text><text x="27.054" y="1.67" class="c">documents</text><text x="37.074" y="1.67" class="c">and</text><text x="41.082" y="1.67" class="c">1</text><text x="43.086" y="1.67" class="c">docvar.</text></symbol><symbol id="7"><text x="0" y="1.67" class="c">text1</text><text x="6.012" y="1.67" class="c">:</text></symbol><symbol id="8"><text x="0" y="1.67" class="c">&quot;Avec</text><text x="6.012" y="1.67" class="c">plus</text><text x="11.021999999999998" y="1.67" class="c">de</text><text x="14.027999999999999" y="1.67" class="c">100 000</text><text x="22.043999999999997" y="1.67" class="c">cas</text><text x="26.052" y="1.67" class="c">par</text><text x="30.059999999999995" y="1.67" class="c">an,</text><text x="34.068" y="1.67" class="c">c&#x27;est</text><text x="40.08" y="1.67" class="c">la</text><text x="43.086" y="1.67" class="c">3e cause</text><text x="52.104" y="1.67" class="c">de</text><text x="55.10999999999999" y="1.67" class="c">mort</text><text x="60.11999999999999" y="1.67" class="c">d...&quot;</text></symbol><symbol id="9"><text x="0" y="1.67" class="c">text2</text><text x="6.012" y="1.67" class="c">:</text></symbol><symbol id="10"><text x="0" y="1.67" class="c">&quot;LE</text><text x="4.008" y="1.67" class="c">FIGARO.</text><text x="12.024" y="1.67" class="c">-</text><text x="14.027999999999999" y="1.67" class="c">Lors</text><text x="19.037999999999997" y="1.67" class="c">des</text><text x="23.045999999999996" y="1.67" class="c">derniers</text><text x="32.064" y="1.67" class="c">Entretiens</text><text x="43.086" y="1.67" class="c">de</text><text x="46.09199999999999" y="1.67" class="c">Bichat</text><text x="53.105999999999995" y="1.67" class="c">(sur</text><text x="58.116" y="1.67" class="c">l&#x27;é...&quot;</text></symbol><symbol id="11"><text x="0" y="1.67" class="c">text3</text><text x="6.012" y="1.67" class="c">:</text></symbol><symbol id="12"><text x="0" y="1.67" class="c">&quot;L&#x27;ancien</text><text x="10.02" y="1.67" class="c">ambassadeur</text><text x="22.043999999999997" y="1.67" class="c">en</text><text x="25.05" y="1.67" class="c">Iran,</text><text x="31.061999999999998" y="1.67" class="c">analyste</text><text x="41.082" y="1.67" class="c">de</text><text x="44.087999999999994" y="1.67" class="c">politique</text><text x="54.108" y="1.67" class="c">interna...&quot;</text></symbol><symbol id="13"><text x="0" y="1.67" class="c">text4</text><text x="6.012" y="1.67" class="c">:</text></symbol><symbol id="14"><text x="0" y="1.67" class="c">&quot;Le</text><text x="4.008" y="1.67" class="c">président</text><text x="14.027999999999999" y="1.67" class="c">de</text><text x="17.034" y="1.67" class="c">l&#x27;agence</text><text x="26.052" y="1.67" class="c">de</text><text x="29.058" y="1.67" class="c">communication</text><text x="43.086" y="1.67" class="c">Tilder</text><text x="50.1" y="1.67" class="c">a</text><text x="52.104" y="1.67" class="c">monté</text><text x="58.116" y="1.67" class="c">l&#x27;e...&quot;</text></symbol><symbol id="15"><text x="0" y="1.67" class="c">text5</text><text x="6.012" y="1.67" class="c">:</text></symbol><symbol id="16"><text x="0" y="1.67" class="c">&quot;Lancé</text><text x="7.013999999999999" y="1.67" class="c">voici</text><text x="13.026" y="1.67" class="c">un</text><text x="16.032" y="1.67" class="c">an</text><text x="19.037999999999997" y="1.67" class="c">par</text><text x="23.045999999999996" y="1.67" class="c">la</text><text x="26.052" y="1.67" class="c">Commission</text><text x="37.074" y="1.67" class="c">européenne,</text><text x="49.098" y="1.67" class="c">présenté</text><text x="58.116" y="1.67" class="c">par...&quot;</text></symbol><symbol id="17"><text x="0" y="1.67" class="c">text6</text><text x="6.012" y="1.67" class="c">:</text></symbol><symbol id="18"><text x="0" y="1.67" class="c">&quot;Après</text><text x="7.013999999999999" y="1.67" class="c">18</text><text x="10.02" y="1.67" class="c">mois</text><text x="15.029999999999998" y="1.67" class="c">de</text><text x="18.035999999999998" y="1.67" class="c">psychodrame,</text><text x="31.061999999999998" y="1.67" class="c">le</text><text x="34.068" y="1.67" class="c">groupe</text><text x="41.082" y="1.67" class="c">américain</text><text x="51.102" y="1.67" class="c">prend</text><text x="57.114" y="1.67" class="c">enfi...&quot;</text></symbol><symbol id="19"><text x="0" y="1.67" class="c">[</text><text x="2.004" y="1.67" class="c">reached</text><text x="10.02" y="1.67" class="c">max_ndoc</text><text x="19.037999999999997" y="1.67" class="c">...</text><text x="23.045999999999996" y="1.67" class="c">3,385</text><text x="29.058" y="1.67" class="c">more</text><text x="34.068" y="1.67" class="c">documents</text><text x="44.087999999999994" y="1.67" class="c">]</text></symbol><symbol id="20"><text x="0" y="1.67" class="c">&gt;</text></symbol><symbol id="a"><rect height="25" width="80" x="0" y="0" class="d"></rect></symbol></defs><rect height="52.104" width="80" class="a"></rect><g class="f"><svg x="0" y="0" width="6080"><svg x="0"><use xlink:href="#a"></use></svg><svg x="80"><use xlink:href="#a"></use><text x="0" y="1.67" class="c">p</text></svg><svg x="160"><use xlink:href="#a"></use><text x="0" y="1.67" class="c">pa</text></svg><svg x="240"><use xlink:href="#a"></use><text x="0" y="1.67" class="c">par</text></svg><svg x="320"><use xlink:href="#a"></use><text x="0" y="1.67" class="c">pari</text></svg><svg x="400"><use xlink:href="#a"></use><text x="0" y="1.67" class="c">paris</text></svg><svg x="480"><use xlink:href="#a"></use><text x="0" y="1.67" class="c">paris_</text></svg><svg x="560"><use xlink:href="#a"></use><text x="0" y="1.67" class="c">paris_c</text></svg><svg x="640"><use xlink:href="#a"></use><text x="0" y="1.67" class="c">paris_co</text></svg><svg x="720"><use xlink:href="#a"></use><text x="0" y="1.67" class="c">paris_cor</text></svg><svg x="800"><use xlink:href="#a"></use><text x="0" y="1.67" class="c">paris_corp</text></svg><svg x="880"><use xlink:href="#a"></use><text x="0" y="1.67" class="c">paris_corpu</text></svg><svg x="960"><use xlink:href="#a"></use><use xlink:href="#1" y="0"></use></svg><svg x="1040"><use xlink:href="#a"></use><use xlink:href="#1" y="0"></use></svg><svg x="1120"><use xlink:href="#a"></use><text x="0" y="1.67" class="c">paris_corpus</text><text x="13.026" y="1.67" class="c">&lt;</text></svg><svg x="1200"><use xlink:href="#a"></use><use xlink:href="#2" y="0"></use></svg><svg x="1280"><use xlink:href="#a"></use><use xlink:href="#2" y="0"></use></svg><svg x="1360"><use xlink:href="#a"></use><text x="0" y="1.67" class="c">paris_corpus</text><text x="13.026" y="1.67" class="c">&lt;-</text><text x="16.032" y="1.67" class="c">c</text></svg><svg x="1440"><use xlink:href="#a"></use><text x="0" y="1.67" class="c">paris_corpus</text><text x="13.026" y="1.67" class="c">&lt;-</text><text x="16.032" y="1.67" class="c">cr</text></svg><svg x="1520"><use xlink:href="#a"></use><text x="0" y="1.67" class="c">paris_corpus</text><text x="13.026" y="1.67" class="c">&lt;-</text><text x="16.032" y="1.67" class="c">cre</text></svg><svg x="1600"><use xlink:href="#a"></use><text x="0" y="1.67" class="c">paris_corpus</text><text x="13.026" y="1.67" class="c">&lt;-</text><text x="16.032" y="1.67" class="c">crea</text></svg><svg x="1680"><use xlink:href="#a"></use><text x="0" y="1.67" class="c">paris_corpus</text><text x="13.026" y="1.67" class="c">&lt;-</text><text x="16.032" y="1.67" class="c">creat</text></svg><svg x="1760"><use xlink:href="#a"></use><text x="0" y="1.67" class="c">paris_corpus</text><text x="13.026" y="1.67" class="c">&lt;-</text><text x="16.032" y="1.67" class="c">create</text></svg><svg x="1840"><use xlink:href="#a"></use><text x="0" y="1.67" class="c">paris_corpus</text><text x="13.026" y="1.67" class="c">&lt;-</text><text x="16.032" y="1.67" class="c">create_</text></svg><svg x="1920"><use xlink:href="#a"></use><text x="0" y="1.67" class="c">paris_corpus</text><text x="13.026" y="1.67" class="c">&lt;-</text><text x="16.032" y="1.67" class="c">create_c</text></svg><svg x="2000"><use xlink:href="#a"></use><text x="0" y="1.67" class="c">paris_corpus</text><text x="13.026" y="1.67" class="c">&lt;-</text><text x="16.032" y="1.67" class="c">create_co</text></svg><svg x="2080"><use xlink:href="#a"></use><text x="0" y="1.67" class="c">paris_corpus</text><text x="13.026" y="1.67" class="c">&lt;-</text><text x="16.032" y="1.67" class="c">create_cor</text></svg><svg x="2160"><use xlink:href="#a"></use><text x="0" y="1.67" class="c">paris_corpus</text><text x="13.026" y="1.67" class="c">&lt;-</text><text x="16.032" y="1.67" class="c">create_corp</text></svg><svg x="2240"><use xlink:href="#a"></use><text x="0" y="1.67" class="c">paris_corpus</text><text x="13.026" y="1.67" class="c">&lt;-</text><text x="16.032" y="1.67" class="c">create_corpu</text></svg><svg x="2320"><use xlink:href="#a"></use><text x="0" y="1.67" class="c">paris_corpus</text><text x="13.026" y="1.67" class="c">&lt;-</text><text x="16.032" y="1.67" class="c">create_corpus</text></svg><svg x="2400"><use xlink:href="#a"></use><text x="0" y="1.67" class="c">paris_corpus</text><text x="13.026" y="1.67" class="c">&lt;-</text><text x="16.032" y="1.67" class="c">create_corpus(</text></svg><svg x="2480"><use xlink:href="#a"></use><text x="0" y="1.67" class="c">paris_corpus</text><text x="13.026" y="1.67" class="c">&lt;-</text><text x="16.032" y="1.67" class="c">create_corpus(p</text></svg><svg x="2560"><use xlink:href="#a"></use><text x="0" y="1.67" class="c">paris_corpus</text><text x="13.026" y="1.67" class="c">&lt;-</text><text x="16.032" y="1.67" class="c">create_corpus(pa</text></svg><svg x="2640"><use xlink:href="#a"></use><text x="0" y="1.67" class="c">paris_corpus</text><text x="13.026" y="1.67" class="c">&lt;-</text><text x="16.032" y="1.67" class="c">create_corpus(par</text></svg><svg x="2720"><use xlink:href="#a"></use><text x="0" y="1.67" class="c">paris_corpus</text><text x="13.026" y="1.67" class="c">&lt;-</text><text x="16.032" y="1.67" class="c">create_corpus(pari</text></svg><svg x="2800"><use xlink:href="#a"></use><text x="0" y="1.67" class="c">paris_corpus</text><text x="13.026" y="1.67" class="c">&lt;-</text><text x="16.032" y="1.67" class="c">create_corpus(paris</text></svg><svg x="2880"><use xlink:href="#a"></use><text x="0" y="1.67" class="c">paris_corpus</text><text x="13.026" y="1.67" class="c">&lt;-</text><text x="16.032" y="1.67" class="c">create_corpus(paris$</text></svg><svg x="2960"><use xlink:href="#a"></use><text x="0" y="1.67" class="c">paris_corpus</text><text x="13.026" y="1.67" class="c">&lt;-</text><text x="16.032" y="1.67" class="c">create_corpus(paris$c</text></svg><svg x="3040"><use xlink:href="#a"></use><text x="0" y="1.67" class="c">paris_corpus</text><text x="13.026" y="1.67" class="c">&lt;-</text><text x="16.032" y="1.67" class="c">create_corpus(paris$co</text></svg><svg x="3120"><use xlink:href="#a"></use><text x="0" y="1.67" class="c">paris_corpus</text><text x="13.026" y="1.67" class="c">&lt;-</text><text x="16.032" y="1.67" class="c">create_corpus(paris$con</text></svg><svg x="3200"><use xlink:href="#a"></use><text x="0" y="1.67" class="c">paris_corpus</text><text x="13.026" y="1.67" class="c">&lt;-</text><text x="16.032" y="1.67" class="c">create_corpus(paris$cont</text></svg><svg x="3280"><use xlink:href="#a"></use><text x="0" y="1.67" class="c">paris_corpus</text><text x="13.026" y="1.67" class="c">&lt;-</text><text x="16.032" y="1.67" class="c">create_corpus(paris$conte</text></svg><svg x="3360"><use xlink:href="#a"></use><text x="0" y="1.67" class="c">paris_corpus</text><text x="13.026" y="1.67" class="c">&lt;-</text><text x="16.032" y="1.67" class="c">create_corpus(paris$conten</text></svg><svg x="3440"><use xlink:href="#a"></use><text x="0" y="1.67" class="c">paris_corpus</text><text x="13.026" y="1.67" class="c">&lt;-</text><text x="16.032" y="1.67" class="c">create_corpus(paris$content</text></svg><svg x="3520"><use xlink:href="#a"></use><use xlink:href="#3" y="0"></use></svg><svg x="3600"><use xlink:href="#a"></use><use xlink:href="#3" y="0"></use></svg><svg x="3680"><use xlink:href="#a"></use><text x="0" y="1.67" class="c">paris_corpus</text><text x="13.026" y="1.67" class="c">&lt;-</text><text x="16.032" y="1.67" class="c">create_corpus(paris$content,</text><text x="45.089999999999996" y="1.67" class="c">p</text></svg><svg x="3760"><use xlink:href="#a"></use><text x="0" y="1.67" class="c">paris_corpus</text><text x="13.026" y="1.67" class="c">&lt;-</text><text x="16.032" y="1.67" class="c">create_corpus(paris$content,</text><text x="45.089999999999996" y="1.67" class="c">pa</text></svg><svg x="3840"><use xlink:href="#a"></use><text x="0" y="1.67" class="c">paris_corpus</text><text x="13.026" y="1.67" class="c">&lt;-</text><text x="16.032" y="1.67" class="c">create_corpus(paris$content,</text><text x="45.089999999999996" y="1.67" class="c">par</text></svg><svg x="3920"><use xlink:href="#a"></use><text x="0" y="1.67" class="c">paris_corpus</text><text x="13.026" y="1.67" class="c">&lt;-</text><text x="16.032" y="1.67" class="c">create_corpus(paris$content,</text><text x="45.089999999999996" y="1.67" class="c">pari</text></svg><svg x="4000"><use xlink:href="#a"></use><text x="0" y="1.67" class="c">paris_corpus</text><text x="13.026" y="1.67" class="c">&lt;-</text><text x="16.032" y="1.67" class="c">create_corpus(paris$content,</text><text x="45.089999999999996" y="1.67" class="c">paris</text></svg><svg x="4080"><use xlink:href="#a"></use><text x="0" y="1.67" class="c">paris_corpus</text><text x="13.026" y="1.67" class="c">&lt;-</text><text x="16.032" y="1.67" class="c">create_corpus(paris$content,</text><text x="45.089999999999996" y="1.67" class="c">paris$</text></svg><svg x="4160"><use xlink:href="#a"></use><text x="0" y="1.67" class="c">paris_corpus</text><text x="13.026" y="1.67" class="c">&lt;-</text><text x="16.032" y="1.67" class="c">create_corpus(paris$content,</text><text x="45.089999999999996" y="1.67" class="c">paris$l</text></svg><svg x="4240"><use xlink:href="#a"></use><text x="0" y="1.67" class="c">paris_corpus</text><text x="13.026" y="1.67" class="c">&lt;-</text><text x="16.032" y="1.67" class="c">create_corpus(paris$content,</text><text x="45.089999999999996" y="1.67" class="c">paris$la</text></svg><svg x="4320"><use xlink:href="#a"></use><text x="0" y="1.67" class="c">paris_corpus</text><text x="13.026" y="1.67" class="c">&lt;-</text><text x="16.032" y="1.67" class="c">create_corpus(paris$content,</text><text x="45.089999999999996" y="1.67" class="c">paris$lan</text></svg><svg x="4400"><use xlink:href="#a"></use><text x="0" y="1.67" class="c">paris_corpus</text><text x="13.026" y="1.67" class="c">&lt;-</text><text x="16.032" y="1.67" class="c">create_corpus(paris$content,</text><text x="45.089999999999996" y="1.67" class="c">paris$lang</text></svg><svg x="4480"><use xlink:href="#a"></use><use xlink:href="#4" y="0"></use></svg><svg x="4560"><use xlink:href="#a"></use><use xlink:href="#4" y="0"></use></svg><svg x="4640"><use xlink:href="#a"></use><use xlink:href="#4" y="0"></use><text x="0" y="3.8409999999999997" class="c">&gt;</text><text x="2.004" y="3.8409999999999997" class="c">p</text></svg><svg x="4720"><use xlink:href="#a"></use><use xlink:href="#4" y="0"></use><text x="0" y="3.8409999999999997" class="c">&gt;</text><text x="2.004" y="3.8409999999999997" class="c">pa</text></svg><svg x="4800"><use xlink:href="#a"></use><use xlink:href="#4" y="0"></use><text x="0" y="3.8409999999999997" class="c">&gt;</text><text x="2.004" y="3.8409999999999997" class="c">par</text></svg><svg x="4880"><use xlink:href="#a"></use><use xlink:href="#4" y="0"></use><text x="0" y="3.8409999999999997" class="c">&gt;</text><text x="2.004" y="3.8409999999999997" class="c">pari</text></svg><svg x="4960"><use xlink:href="#a"></use><use xlink:href="#4" y="0"></use><text x="0" y="3.8409999999999997" class="c">&gt;</text><text x="2.004" y="3.8409999999999997" class="c">paris</text></svg><svg x="5040"><use xlink:href="#a"></use><use xlink:href="#4" y="0"></use><text x="0" y="3.8409999999999997" class="c">&gt;</text><text x="2.004" y="3.8409999999999997" class="c">paris_</text></svg><svg x="5120"><use xlink:href="#a"></use><use xlink:href="#4" y="0"></use><text x="0" y="3.8409999999999997" class="c">&gt;</text><text x="2.004" y="3.8409999999999997" class="c">paris_c</text></svg><svg x="5200"><use xlink:href="#a"></use><use xlink:href="#4" y="0"></use><text x="0" y="3.8409999999999997" class="c">&gt;</text><text x="2.004" y="3.8409999999999997" class="c">paris_co</text></svg><svg x="5280"><use xlink:href="#a"></use><use xlink:href="#4" y="0"></use><text x="0" y="3.8409999999999997" class="c">&gt;</text><text x="2.004" y="3.8409999999999997" class="c">paris_cor</text></svg><svg x="5360"><use xlink:href="#a"></use><use xlink:href="#4" y="0"></use><text x="0" y="3.8409999999999997" class="c">&gt;</text><text x="2.004" y="3.8409999999999997" class="c">paris_corp</text></svg><svg x="5440"><use xlink:href="#a"></use><use xlink:href="#4" y="0"></use><text x="0" y="3.8409999999999997" class="c">&gt;</text><text x="2.004" y="3.8409999999999997" class="c">paris_corpu</text></svg><svg x="5520"><use xlink:href="#a"></use><use xlink:href="#4" y="0"></use><use xlink:href="#5" y="2.171"></use></svg><svg x="5600"><use xlink:href="#a"></use><use xlink:href="#4" y="0"></use><use xlink:href="#5" y="2.171"></use></svg><svg x="5680"><use xlink:href="#a"></use><use xlink:href="#4" y="0"></use><use xlink:href="#5" y="2.171"></use><use xlink:href="#6" y="4.342"></use></svg><svg x="5760"><use xlink:href="#a"></use><use xlink:href="#4" y="0"></use><use xlink:href="#5" y="2.171"></use><use xlink:href="#6" y="4.342"></use><use xlink:href="#7" y="6.513"></use><use xlink:href="#8" y="8.684"></use><use xlink:href="#9" y="13.026"></use><use xlink:href="#10" y="15.197"></use><use xlink:href="#11" y="19.539"></use><use xlink:href="#12" y="21.71"></use><use xlink:href="#13" y="26.052"></use><use xlink:href="#14" y="28.223000000000003"></use><use xlink:href="#15" y="32.565"></use><use xlink:href="#16" y="34.736"></use><use xlink:href="#17" y="39.078"></use><use xlink:href="#18" y="41.248999999999995"></use></svg><svg x="5840"><use xlink:href="#a"></use><use xlink:href="#4" y="0"></use><use xlink:href="#5" y="2.171"></use><use xlink:href="#6" y="4.342"></use><use xlink:href="#7" y="6.513"></use><use xlink:href="#8" y="8.684"></use><use xlink:href="#9" y="13.026"></use><use xlink:href="#10" y="15.197"></use><use xlink:href="#11" y="19.539"></use><use xlink:href="#12" y="21.71"></use><use xlink:href="#13" y="26.052"></use><use xlink:href="#14" y="28.223000000000003"></use><use xlink:href="#15" y="32.565"></use><use xlink:href="#16" y="34.736"></use><use xlink:href="#17" y="39.078"></use><use xlink:href="#18" y="41.248999999999995"></use><use xlink:href="#19" y="45.591"></use></svg><svg x="5920"><use xlink:href="#a"></use><use xlink:href="#4" y="0"></use><use xlink:href="#5" y="2.171"></use><use xlink:href="#6" y="4.342"></use><use xlink:href="#7" y="6.513"></use><use xlink:href="#8" y="8.684"></use><use xlink:href="#9" y="13.026"></use><use xlink:href="#10" y="15.197"></use><use xlink:href="#11" y="19.539"></use><use xlink:href="#12" y="21.71"></use><use xlink:href="#13" y="26.052"></use><use xlink:href="#14" y="28.223000000000003"></use><use xlink:href="#15" y="32.565"></use><use xlink:href="#16" y="34.736"></use><use xlink:href="#17" y="39.078"></use><use xlink:href="#18" y="41.248999999999995"></use><use xlink:href="#19" y="45.591"></use><use xlink:href="#20" y="47.76199999999999"></use></svg><svg x="6000"><use xlink:href="#a"></use><use xlink:href="#4" y="0"></use><use xlink:href="#5" y="2.171"></use><use xlink:href="#6" y="4.342"></use><use xlink:href="#7" y="6.513"></use><use xlink:href="#8" y="8.684"></use><use xlink:href="#9" y="13.026"></use><use xlink:href="#10" y="15.197"></use><use xlink:href="#11" y="19.539"></use><use xlink:href="#12" y="21.71"></use><use xlink:href="#13" y="26.052"></use><use xlink:href="#14" y="28.223000000000003"></use><use xlink:href="#15" y="32.565"></use><use xlink:href="#16" y="34.736"></use><use xlink:href="#17" y="39.078"></use><use xlink:href="#18" y="41.248999999999995"></use><use xlink:href="#19" y="45.591"></use><use xlink:href="#20" y="47.76199999999999"></use></svg></svg></g></g></svg></svg>